<?xml version="1.0" encoding="UTF-8"?>
<!-- Generator: visioncortex VTracer 0.6.12 -->
<svg version="1.1" xmlns="http://www.w3.org/2000/svg" width="646" height="320">
<path d="M0 0 C1.268 -0.006 2.537 -0.012 3.843 -0.019 C6.511 -0.026 9.178 -0.025 11.845 -0.01 C14.537 0.004 17.228 -0.003 19.919 -0.031 C51.53 -0.33 51.53 -0.33 65.273 5.566 C66.176 8.273 66.396 9.805 66.387 12.579 C66.387 13.379 66.387 14.18 66.387 15.005 C66.382 15.864 66.376 16.724 66.371 17.609 C66.37 18.051 66.37 18.051 66.367 20.287 C66.361 23.109 66.349 25.932 66.336 28.754 C66.331 30.667 66.326 32.581 66.322 34.494 C66.311 39.185 66.294 43.876 66.273 48.566 C63.805 47.415 62.226 46.519 60.273 44.566 C57.82 43.593 55.399 42.71 52.898 41.879 C52.226 41.641 51.553 41.403 50.859 41.158 C47.209 39.933 44.93 39.402 41.273 40.566 C38.926 40.227 38.926 40.227 36.211 39.629 C24.475 37.532 12.19 37.389 0.727 40.848 C-1.481 41.494 -3.445 41.812 -5.727 42.004 C-10.216 42.846 -11.957 45.485 -14.543 49.117 C-17.726 54.151 -20.619 58.989 -22.727 64.566 C-23.387 64.566 -24.047 64.566 -24.727 64.566 C-24.706 65.618 -24.685 66.67 -24.664 67.754 C-24.716 70.912 -25.056 73.511 -25.727 76.566 C-24.699 76.156 -23.672 75.747 -22.613 75.324 C-1.246 66.94 21.11 65.367 42.836 74.004 C53.485 78.791 53.485 78.791 56.273 84.566 C56.874 84.702 57.475 84.837 58.094 84.977 C65.78 87.057 70.684 96.95 74.512 103.223 C79.154 112.033 79.692 119.162 79.555 128.939 C79.523 131.193 79.514 133.446 79.508 135.699 C79.47 141.748 79.422 147.605 78.273 153.566 C78.603 153.566 78.933 153.566 79.273 153.566 C78.029 165.762 70.667 179.574 61.273 187.566 C59.948 187.93 58.614 188.265 57.273 188.566 C54.894 190.767 52.719 193.052 50.598 195.5 C47.547 198.213 44.294 199.672 40.586 201.316 C40.241 201.474 40.241 201.474 38.498 202.273 C33.451 204.566 33.451 204.566 32.273 204.566 C31.696 204.896 31.118 205.226 30.523 205.566 C27.917 206.725 26.097 206.795 23.273 206.566 C22.943 206.236 22.613 205.906 22.273 205.566 C20.272 205.89 18.272 206.225 16.273 206.566 C14.12 206.655 11.964 206.697 9.809 206.699 C8.596 206.701 7.384 206.702 6.135 206.703 C4.881 206.699 3.628 206.695 2.336 206.691 C1.711 206.693 1.711 206.693 -1.451 206.703 C-11.657 206.692 -11.657 206.692 -15.855 205.996 C-18.727 205.566 -18.727 205.566 -20.852 206.113 C-23.572 206.771 -25.18 205.888 -27.727 204.816 C-28.572 204.471 -29.418 204.125 -30.289 203.77 C-32.686 202.586 -34.611 201.186 -36.727 199.566 C-37.407 199.401 -38.088 199.236 -38.789 199.066 C-41.265 198.427 -42.028 197.469 -43.727 195.566 C-46.398 192.746 -49.038 190.271 -52.227 188.066 C-57.444 184.438 -65.662 178.021 -67.211 171.539 C-67.727 169.566 -67.727 169.566 -69.141 168.152 C-75.025 162.268 -76.62 150.621 -78.539 142.754 C-78.649 142.312 -78.649 142.312 -79.203 140.079 C-80.445 134.758 -80.845 130.021 -80.727 124.566 C-81.057 124.236 -81.387 123.906 -81.727 123.566 C-82.812 120.25 -82.856 117.137 -82.859 113.664 C-82.861 112.526 -82.862 111.389 -82.863 110.217 C-82.861 109.625 -82.861 109.625 -82.852 106.629 C-82.855 105.449 -82.859 104.269 -82.863 103.053 C-82.862 101.914 -82.861 100.775 -82.859 99.602 C-82.858 98.564 -82.857 97.526 -82.856 96.457 C-82.539 89.379 -82.539 89.379 -80.727 87.566 C-80.643 85.63 -80.586 83.692 -80.539 81.754 C-79.472 65.865 -73.325 51.375 -65.727 37.566 C-65.067 37.566 -64.407 37.566 -63.727 37.566 C-63.478 36.838 -63.229 36.11 -62.973 35.359 C-59.154 26.799 -49.267 18.015 -41.727 12.566 C-38.559 11.906 -38.559 11.906 -35.727 11.566 C-33.102 9.691 -33.102 9.691 -30.727 7.566 C-22.244 0.427 -10.593 -0.044 0 0 Z M40.273 1.566 C44.273 2.566 44.273 2.566 44.273 2.566 Z M45.273 2.566 C49.273 3.566 49.273 3.566 49.273 3.566 Z M50.273 3.566 C54.273 4.566 54.273 4.566 54.273 4.566 Z M54.273 4.566 C58.273 5.566 58.273 5.566 58.273 5.566 Z M3.273 36.566 C3.273 36.896 3.273 37.226 3.273 37.566 C5.253 37.401 5.253 37.401 15.273 36.566 C15.273 36.236 15.273 35.906 15.273 35.566 C11.112 35.485 7.326 35.584 3.273 36.566 Z M24.273 35.566 C24.273 35.896 24.273 36.226 24.273 36.566 C26.913 36.566 29.553 36.566 32.273 36.566 C32.273 36.236 32.273 35.906 32.273 35.566 C29.633 35.566 26.993 35.566 24.273 35.566 Z M32.273 36.566 C32.273 36.896 32.273 37.226 32.273 37.566 C33.923 37.566 35.573 37.566 37.273 37.566 C37.273 37.236 37.273 36.906 37.273 36.566 C35.623 36.566 33.973 36.566 32.273 36.566 Z M37.273 37.566 C37.273 37.896 37.273 38.226 37.273 38.566 C38.923 38.566 40.573 38.566 42.273 38.566 C42.273 38.236 42.273 37.906 42.273 37.566 C40.623 37.566 38.973 37.566 37.273 37.566 Z M-70.727 49.566 C-69.727 51.566 -69.727 51.566 -69.727 51.566 Z M-74.727 60.566 C-73.727 62.566 -73.727 62.566 -73.727 62.566 Z M-75.727 63.566 C-74.727 66.566 -74.727 66.566 -74.727 66.566 Z M-76.727 67.566 C-75.727 70.566 -75.727 70.566 -75.727 70.566 Z M-26.727 67.566 C-25.727 69.566 -25.727 69.566 -25.727 69.566 Z M4.273 69.566 C4.273 69.896 4.273 70.226 4.273 70.566 C8.563 70.566 12.853 70.566 17.273 70.566 C17.273 70.236 17.273 69.906 17.273 69.566 C12.983 69.566 8.693 69.566 4.273 69.566 Z M-27.727 70.566 C-26.727 73.566 -26.727 73.566 -26.727 73.566 Z M-3.727 70.566 C-3.727 70.896 -3.727 71.226 -3.727 71.566 C-1.747 71.566 0.233 71.566 2.273 71.566 C2.273 71.236 2.273 70.906 2.273 70.566 C0.293 70.566 -1.687 70.566 -3.727 70.566 Z M20.273 70.566 C20.273 70.896 20.273 71.226 20.273 71.566 C22.253 71.566 24.233 71.566 26.273 71.566 C26.273 71.236 26.273 70.906 26.273 70.566 C24.293 70.566 22.313 70.566 20.273 70.566 Z M-77.727 71.566 C-76.727 74.566 -76.727 74.566 -76.727 74.566 Z M-8.727 71.566 C-4.727 72.566 -4.727 72.566 -4.727 72.566 Z M27.273 71.566 C31.273 72.566 31.273 72.566 31.273 72.566 Z M-28.727 75.566 C-29.057 76.886 -29.387 78.206 -29.727 79.566 C-28.737 79.236 -27.747 78.906 -26.727 78.566 C-27.387 77.576 -28.047 76.586 -28.727 75.566 Z M-78.727 76.566 C-77.727 80.566 -77.727 80.566 -77.727 80.566 Z M-29.727 80.566 C-29.397 81.226 -29.067 81.886 -28.727 82.566 C-28.397 81.906 -28.067 81.246 -27.727 80.566 C-28.387 80.566 -29.047 80.566 -29.727 80.566 Z M-81.727 103.566 C-80.727 107.566 -80.727 107.566 -80.727 107.566 Z M-12.727 108.566 C-12.397 109.226 -12.067 109.886 -11.727 110.566 C-12.49 111.082 -13.253 111.598 -14.039 112.129 C-19.007 116.635 -20.499 122.746 -20.888 129.27 C-20.933 132.432 -20.962 135.592 -20.977 138.754 C-20.997 139.84 -21.018 140.926 -21.039 142.045 C-21.08 150.468 -20.541 158.982 -14.727 165.566 C-14.067 165.566 -13.407 165.566 -12.727 165.566 C-12.727 166.226 -12.727 166.886 -12.727 167.566 C-4.903 171.322 4.852 172.479 13.211 169.566 C19.621 165.38 23.249 160.991 25.211 153.504 C27.569 140.945 28.01 125.897 21.273 114.566 C20.613 114.566 19.953 114.566 19.273 114.566 C19.603 113.246 19.933 111.926 20.273 110.566 C19.201 109.927 18.128 109.288 17.023 108.629 C16.42 108.269 15.817 107.91 15.195 107.539 C6.802 103.291 -4.52 104.627 -12.727 108.566 Z M75.273 109.566 C76.273 111.566 76.273 111.566 76.273 111.566 Z M76.273 112.566 C77.273 114.566 77.273 114.566 77.273 114.566 Z M77.273 115.566 C78.273 118.566 78.273 118.566 78.273 118.566 Z M-19.727 116.566 C-18.727 118.566 -18.727 118.566 -18.727 118.566 Z M24.273 117.566 C25.273 119.566 25.273 119.566 25.273 119.566 Z M-20.727 118.566 C-19.727 120.566 -19.727 120.566 -19.727 120.566 Z M25.273 120.566 C26.273 123.566 26.273 123.566 26.273 123.566 Z M26.273 124.566 C27.273 127.566 27.273 127.566 27.273 127.566 Z M-22.727 125.566 C-23.647 130.222 -23.849 134.713 -23.789 139.441 C-23.785 140.13 -23.78 140.818 -23.775 141.527 C-23.764 143.207 -23.746 144.887 -23.727 146.566 C-23.397 146.566 -23.067 146.566 -22.727 146.566 C-22.397 139.636 -22.067 132.706 -21.727 125.566 C-22.057 125.566 -22.387 125.566 -22.727 125.566 Z M27.273 129.566 C27.273 135.836 27.273 142.106 27.273 148.566 C27.603 148.566 27.933 148.566 28.273 148.566 C28.273 142.296 28.273 136.026 28.273 129.566 C27.943 129.566 27.613 129.566 27.273 129.566 Z M-78.727 131.566 C-78.727 133.216 -78.727 134.866 -78.727 136.566 C-78.397 136.566 -78.067 136.566 -77.727 136.566 C-77.727 134.916 -77.727 133.266 -77.727 131.566 C-78.057 131.566 -78.387 131.566 -78.727 131.566 Z M-77.727 137.566 C-76.727 141.566 -76.727 141.566 -76.727 141.566 Z M-22.727 146.566 C-22.727 148.546 -22.727 150.526 -22.727 152.566 C-22.397 152.566 -22.067 152.566 -21.727 152.566 C-21.727 150.586 -21.727 148.606 -21.727 146.566 C-22.057 146.566 -22.387 146.566 -22.727 146.566 Z M26.273 149.566 C27.273 152.566 27.273 152.566 27.273 152.566 Z M-74.727 150.566 C-73.727 152.566 -73.727 152.566 -73.727 152.566 Z M-21.727 152.566 C-20.727 154.566 -20.727 154.566 -20.727 154.566 Z M-73.727 153.566 C-72.727 155.566 -72.727 155.566 -72.727 155.566 Z M-72.727 156.566 C-71.727 158.566 -71.727 158.566 -71.727 158.566 Z M76.273 157.566 C77.273 160.566 77.273 160.566 77.273 160.566 Z M75.273 160.566 C76.273 163.566 76.273 163.566 76.273 163.566 Z M72.273 166.566 C72.603 167.226 72.933 167.886 73.273 168.566 C73.603 167.906 73.933 167.246 74.273 166.566 C73.613 166.566 72.953 166.566 72.273 166.566 Z M-5.727 171.566 C-5.727 171.896 -5.727 172.226 -5.727 172.566 C-3.747 172.566 -1.767 172.566 0.273 172.566 C0.273 172.236 0.273 171.906 0.273 171.566 C-1.707 171.566 -3.687 171.566 -5.727 171.566 Z M4.273 171.566 C4.273 171.896 4.273 172.226 4.273 172.566 C6.253 172.566 8.233 172.566 10.273 172.566 C10.273 172.236 10.273 171.906 10.273 171.566 C8.293 171.566 6.313 171.566 4.273 171.566 Z M-29.727 201.566 C-29.067 201.896 -29.067 201.896 -25.727 203.566 C-26.057 202.906 -26.387 202.246 -26.727 201.566 C-27.717 201.566 -28.707 201.566 -29.727 201.566 Z " fill="#FFFFFF" transform="translate(453.7265625,33.43359375)"/>
<path d="M0 0 C42.57 0 85.14 0 129 0 C129 39 129 39 128 41 C100.28 41 72.56 41 44 41 C44 48.92 44 56.84 44 65 C45.898 64.484 47.795 63.969 49.75 63.438 C56.229 61.677 56.229 61.677 60 63 C63.006 63.86 65.622 64.109 68.75 64.062 C69.549 64.053 70.348 64.044 71.172 64.035 C71.775 64.024 72.378 64.012 73 64 C73.165 63.67 73.165 63.67 74 62 C87.896 63.418 103.293 65.834 115 74 C115.33 74.99 115.66 75.98 116 77 C117.602 78.578 117.602 78.578 119.625 80.25 C129.816 88.925 129.816 88.925 133.25 94.375 C135 97 135 97 138 98 C147.142 117.26 148.068 140.954 141 161 C140.039 163.019 139.05 165.026 138 167 C137.34 167 136.68 167 136 167 C135.946 167.862 135.892 168.725 135.836 169.613 C134.791 173.847 132.604 176.174 129.625 179.188 C129.377 179.448 129.377 179.448 128.125 180.764 C126.764 182.189 125.382 183.595 124 185 C123.444 185.601 122.889 186.201 122.316 186.82 C120.41 188.529 118.484 188.664 116 189 C115.67 189.99 115.34 190.98 115 192 C112.715 193.286 110.514 194.384 108.125 195.438 C107.45 195.742 106.774 196.047 106.079 196.362 C90.201 203.44 90.201 203.44 84 203 C83.67 202.67 83.34 202.34 83 202 C81.072 202.231 79.144 202.467 77.22 202.733 C73.927 203.129 70.666 203.13 67.352 203.133 C66.654 203.134 65.957 203.135 65.238 203.136 C63.774 203.136 62.31 203.135 60.847 203.13 C58.637 203.125 56.428 203.13 54.219 203.137 C46.754 203.14 39.419 202.922 32 202 C32 202.33 32 202.66 32 203 C30.374 202.913 28.749 202.805 27.125 202.688 C26.22 202.629 25.315 202.571 24.383 202.512 C22 202 22 202 20 199 C20 199.66 20 200.32 20 201 C10.749 198.881 2.061 196.02 -7 193 C-7 178.48 -7 163.96 -7 149 C-0.286 151.238 -0.286 151.238 3.031 152.805 C27.415 164.109 27.415 164.109 35 162 C37.199 162.34 37.199 162.34 39.688 162.938 C44.878 163.98 49.853 164.197 55.125 164.188 C55.884 164.188 56.643 164.189 57.425 164.189 C62.865 164.135 62.865 164.135 64 163 C67.846 161.154 70.33 160.035 74.625 159.812 C78.427 158.897 78.743 158.505 80.75 155.375 C81.532 153.934 82.284 152.475 83 151 C83.309 150.381 83.619 149.762 83.938 149.125 C88.346 139.63 87.63 130.309 84.949 120.48 C83.966 117.91 82.674 116.162 81 114 C81 113.34 81 112.68 81 112 C80.34 111.67 80.34 111.67 77 110 C77 109.34 77 108.68 77 108 C76.336 107.867 75.672 107.734 74.988 107.598 C67 106 67 106 64.641 105.484 C45.355 101.952 24.338 106.014 6.421 113.319 C4 114 4 114 0 113 C0 75.71 0 38.42 0 0 Z M42 41 C42 49.25 42 57.5 42 66 C42.33 66 42.66 66 43 66 C43 57.75 43 49.5 43 41 C42.67 41 42.34 41 42 41 Z M48 65 C52 66 52 66 52 66 Z M82 65 C82 65.33 82 65.66 82 66 C83.65 66 85.3 66 87 66 C87 65.67 87 65.34 87 65 C85.35 65 83.7 65 82 65 Z M88 66 C92 67 92 67 92 67 Z M36 102 C36 102.33 36 102.66 36 103 C45.24 103 54.48 103 64 103 C64 102.67 64 102.34 64 102 C54.681 100.306 45.35 100.753 36 102 Z M30 103 C30 103.33 30 103.66 30 104 C31.98 104 33.96 104 36 104 C36 103.67 36 103.34 36 103 C34.02 103 32.04 103 30 103 Z M64 103 C68 104 68 104 68 104 Z M25 104 C25 104.33 25 104.66 25 105 C26.65 105 28.3 105 30 105 C30 104.67 30 104.34 30 104 C28.35 104 26.7 104 25 104 Z M21 105 C25 106 25 106 25 106 Z M139 107 C140 109 140 109 140 109 Z M140 109 C141 112 141 112 141 112 Z M141 113 C142 117 142 117 142 117 Z M84 114 C85 116 85 116 85 116 Z M142 118 C142 119.98 142 121.96 142 124 C142.33 124 142.66 124 143 124 C143 122.02 143 120.04 143 118 C142.67 118 142.34 118 142 118 Z M88 125 C89 127 89 127 89 127 Z M89 127 C89 131.62 89 136.24 89 141 C89.33 141 89.66 141 90 141 C90 136.38 90 131.76 90 127 C89.67 127 89.34 127 89 127 Z M143 127 C143 131.62 143 136.24 143 141 C143.33 141 143.66 141 144 141 C144 136.38 144 131.76 144 127 C143.67 127 143.34 127 143 127 Z M88 141 C89 145 89 145 89 145 Z M142 143 C142 144.98 142 146.96 142 149 C142.33 149 142.66 149 143 149 C143 147.02 143 145.04 143 143 C142.67 143 142.34 143 142 143 Z M87 145 C88 147 88 147 88 147 Z M86 148 C87 150 87 150 87 150 Z M141 150 C142 153 142 153 142 153 Z M137 163 C138 165 138 165 138 165 Z M35 164 C37 166 37 166 39.625 166.125 C40.409 166.084 41.193 166.042 42 166 C39.353 164.539 38.106 164 35 164 Z M44 166 C44 166.33 44 166.66 44 167 C48.62 167 53.24 167 58 167 C58 166.67 58 166.34 58 166 C53.38 166 48.76 166 44 166 Z " fill="#FFFFFF" transform="translate(7,37)"/>
<path d="M0 0 C51.48 0 102.96 0 156 0 C156 34.821 156 34.821 148 48 C147.34 48 146.68 48 146 48 C145.938 48.526 145.938 48.526 145.625 51.188 C145.089 54.46 144.361 57.005 143 60 C142.34 60 141.68 60 141 60 C140.942 60.354 140.942 60.354 140.65 62.143 C139.95 65.221 138.889 67.83 137.602 70.711 C137.122 71.791 136.643 72.871 136.148 73.984 C135.646 75.103 135.143 76.222 134.625 77.375 C133.638 79.591 132.651 81.807 131.664 84.023 C131.202 85.058 130.739 86.093 130.263 87.159 C128.81 90.427 127.395 93.708 126 97 C125.34 97 124.68 97 124 97 C123.947 97.341 123.947 97.341 123.682 99.064 C122.87 102.559 121.539 105.713 120.094 108.98 C119.809 109.635 119.524 110.289 119.231 110.962 C118.325 113.04 117.413 115.113 116.5 117.188 C115.886 118.593 115.273 119.999 114.66 121.404 C110.262 131.476 110.262 131.476 109 134 C108.34 134 107.68 134 107 134 C106.885 134.7 106.771 135.4 106.653 136.122 C105.933 139.298 104.838 142.056 103.559 145.051 C103.061 146.217 102.564 147.382 102.051 148.583 C101.514 149.827 100.976 151.07 100.438 152.312 C100.167 152.942 99.896 153.571 99.617 154.22 C96.196 162.168 92.65 170.022 88.676 177.712 C85.434 183.999 82.696 190.464 80 197 C79.34 197 78.68 197 78 197 C77.34 198.65 76.68 200.3 76 202 C68.934 202.076 61.869 202.129 54.802 202.165 C52.398 202.18 49.993 202.2 47.589 202.226 C44.136 202.263 40.683 202.28 37.23 202.293 C36.691 202.301 36.691 202.301 33.963 202.34 C32.962 202.34 31.962 202.34 30.93 202.341 C30.049 202.347 29.167 202.354 28.259 202.361 C25.559 201.929 24.688 201.095 23 199 C25.035 192.592 27.387 186.38 30 180.188 C30.343 179.355 30.686 178.523 31.039 177.666 C31.377 176.862 31.715 176.059 32.062 175.23 C32.363 174.513 32.663 173.795 32.973 173.055 C34 171 34 171 35.445 169.127 C37.385 166.473 38.533 163.758 39.812 160.73 C40.067 160.131 40.322 159.532 40.585 158.915 C41.395 157.008 42.198 155.098 43 153.188 C43.539 151.916 44.078 150.644 44.617 149.373 C45.616 147.017 46.612 144.66 47.605 142.302 C49.058 138.862 50.527 135.43 52 132 C52.66 132 53.32 132 54 132 C54.145 131.442 54.29 130.884 54.439 130.309 C56.611 122.494 59.837 115.244 63.188 107.875 C63.753 106.62 64.317 105.365 64.881 104.109 C66.248 101.07 67.622 98.034 69 95 C69.66 95 70.32 95 71 95 C71.104 94.321 71.208 93.641 71.316 92.942 C72.136 89.414 73.487 86.231 74.949 82.934 C75.244 82.259 75.539 81.584 75.843 80.889 C76.469 79.462 77.097 78.035 77.727 76.61 C78.673 74.471 79.609 72.329 80.545 70.186 C83.756 62.864 87.085 55.645 90.749 48.535 C91.959 46.082 92.984 43.54 94 41 C63.97 41 33.94 41 3 41 C3 40.67 3 40.34 3 40 C3.581 40.001 3.581 40.001 6.524 40.007 C17.458 40.027 28.391 40.042 39.325 40.052 C44.947 40.057 50.569 40.064 56.191 40.075 C61.611 40.086 67.032 40.092 72.452 40.095 C74.525 40.097 76.598 40.1 78.671 40.106 C81.564 40.113 84.457 40.114 87.349 40.114 C88.215 40.117 89.081 40.121 89.974 40.124 C95.886 40.114 95.886 40.114 97 39 C95.829 39.002 94.658 39.004 93.452 39.007 C82.43 39.027 71.409 39.042 60.387 39.052 C54.721 39.057 49.054 39.064 43.387 39.075 C37.922 39.086 32.456 39.092 26.99 39.095 C24.902 39.097 22.814 39.1 20.726 39.106 C17.807 39.113 14.888 39.114 11.969 39.114 C11.101 39.117 10.233 39.121 9.339 39.124 C5.974 39.119 3.215 39.072 0 38 C0 25.46 0 12.92 0 0 Z M152 32 C153 34 153 34 153 34 Z M151 34 C152 36 152 36 152 36 Z M94 44 C95 46 95 46 95 46 Z M144 50 C145 52 145 52 145 52 Z M87 59 C88 61 88 61 88 61 Z M86 61 C87 63 87 63 87 63 Z M85 63 C86 65 86 65 86 65 Z M84 65 C85 67 85 67 85 67 Z M135 69 C136 71 136 71 136 71 Z M134 71 C135 73 135 73 135 73 Z M78 79 C79 81 79 81 79 81 Z M130 80 C131 82 131 82 131 82 Z M129 83 C130 85 130 85 130 85 Z M128 85 C129 87 129 87 129 87 Z M124 94 C125 96 125 96 125 96 Z M70 96 C71 98 71 98 71 98 Z M122 97 C123 99 123 99 123 99 Z M69 98 C70 100 70 100 70 100 Z M65 107 C66 109 66 109 66 109 Z M115 113 C116 115 116 115 116 115 Z M62 114 C63 116 63 116 63 116 Z M112 120 C113 122 113 122 113 122 Z M111 122 C112 124 112 124 112 124 Z M109 127 C110 129 110 129 110 129 Z M108 129 C109 131 109 131 109 131 Z M55 130 C56 132 56 132 56 132 Z M107 131 C108 133 108 133 108 133 Z M53 133 C54 135 54 135 54 135 Z M52 135 C53 137 53 137 53 137 Z M51 137 C52 139 52 139 52 139 Z M50 140 C51 142 51 142 51 142 Z M49 142 C50 144 50 144 50 144 Z M100 146 C101 148 101 148 101 148 Z M47 147 C48 149 48 149 48 149 Z M99 148 C100 150 100 150 100 150 Z M44 154 C45 156 45 156 45 156 Z M93 162 C94 164 94 164 94 164 Z M92 164 C93 166 93 166 93 166 Z M39 165 C40 167 40 167 40 167 Z M91 166 C92 168 92 168 92 168 Z M90 168 C91 170 91 170 91 170 Z M34 175 C35 177 35 177 35 177 Z M33 177 C34 179 34 179 34 179 Z M32 179 C33 182 33 182 33 182 Z M84 181 C85 183 85 183 85 183 Z M31 182 C32 184 32 184 32 184 Z M83 183 C84 185 84 185 84 185 Z M27 191 C28 193 28 193 28 193 Z " fill="#FFFFFF" transform="translate(183,37)"/>
<path d="M0 0 C0.369 -0 0.369 -0 2.233 -0.002 C8.238 0.117 13.478 1.356 19.141 3.402 C21.875 4.375 21.875 4.375 24.535 4.859 C28.186 5.664 30.218 7.836 32.875 10.375 C34.321 12.716 34.999 14.748 35.875 17.375 C36.865 17.045 37.855 16.715 38.875 16.375 C48.151 27.167 49.989 38.934 50.113 52.738 C50.121 53.611 50.129 54.484 50.138 55.383 C50.151 57.219 50.162 59.055 50.17 60.891 C50.182 62.75 50.202 64.609 50.232 66.468 C50.542 86.042 50.542 86.042 45.875 95.375 C45.442 96.406 45.009 97.438 44.562 98.5 C42.075 102.738 39.211 106.758 35.875 110.375 C35.215 110.375 34.555 110.375 33.875 110.375 C33.545 111.035 33.215 111.695 32.875 112.375 C32.215 112.375 31.555 112.375 30.875 112.375 C28.659 114.478 26.54 116.626 24.512 118.91 C17.767 124.947 7.253 125.69 -1.371 125.598 C-8.438 125.026 -16.133 123.262 -22.125 119.375 C-22.455 118.385 -22.785 117.395 -23.125 116.375 C-25.104 114.6 -26.491 113.494 -29.125 113 C-31.125 112.375 -31.125 112.375 -35.125 107.375 C-35.455 124.535 -35.785 141.695 -36.125 159.375 C-43.055 159.375 -49.985 159.375 -57.125 159.375 C-57.125 107.565 -57.125 55.755 -57.125 2.375 C-50.195 2.375 -43.265 2.375 -36.125 2.375 C-35.96 5.015 -35.96 5.015 -35.125 18.375 C-34.465 16.725 -33.805 15.075 -33.125 13.375 C-31.809 12.676 -30.475 12.008 -29.125 11.375 C-28.795 10.694 -28.465 10.014 -28.125 9.312 C-27.795 8.673 -27.465 8.034 -27.125 7.375 C-25.8 7.012 -24.464 6.683 -23.125 6.375 C-21.183 5.45 -19.308 4.435 -17.418 3.41 C-11.723 0.839 -6.201 -0.012 0 0 Z M-10.125 19.375 C-10.125 19.705 -10.125 20.035 -10.125 20.375 C-5.835 20.375 -1.545 20.375 2.875 20.375 C2.875 20.045 2.875 19.715 2.875 19.375 C-1.415 19.375 -5.705 19.375 -10.125 19.375 Z M-25.215 30.836 C-28.144 34.729 -29.708 38.749 -31.125 43.375 C-31.538 44.571 -31.95 45.767 -32.375 47 C-32.622 47.784 -32.87 48.567 -33.125 49.375 C-33.785 49.375 -34.445 49.375 -35.125 49.375 C-36.196 53.745 -36.308 58.026 -36.312 62.5 C-36.325 63.215 -36.337 63.931 -36.35 64.668 C-36.36 68.453 -36.276 70.149 -34.125 73.375 C-32.243 76.198 -31.205 78.579 -30.062 81.75 C-29.721 82.686 -29.379 83.622 -29.027 84.586 C-28.125 87.375 -28.125 87.375 -27.605 90.164 C-27.447 90.894 -27.288 91.623 -27.125 92.375 C-25.5 93.375 -25.5 93.375 -23.125 94.375 C-22.032 95.196 -20.95 96.031 -19.875 96.875 C-11.114 103.181 -0.365 101.661 9.844 100.789 C11.875 100.375 11.875 100.375 13.875 98.375 C13.545 98.045 13.215 97.715 12.875 97.375 C13.762 96.756 14.649 96.137 15.562 95.5 C22.104 90.026 24.636 81.549 25.875 73.375 C26.165 69.412 26.2 65.472 26.188 61.5 C26.204 60.488 26.22 59.476 26.236 58.434 C26.243 48.317 24.143 39.98 18.875 31.375 C18.751 30.674 18.628 29.972 18.5 29.25 C17.375 25.874 14.895 24.004 11.875 22.375 C8.541 21.583 5.293 21.451 1.875 21.375 C1.045 21.325 0.215 21.274 -0.641 21.223 C-10.927 20.818 -18.143 23.178 -25.215 30.836 Z M46.875 36.375 C47.875 38.375 47.875 38.375 47.875 38.375 Z M-32.125 39.375 C-31.125 41.375 -31.125 41.375 -31.125 41.375 Z M47.875 39.375 C48.875 42.375 48.875 42.375 48.875 42.375 Z M24.875 40.375 C25.875 43.375 25.875 43.375 25.875 43.375 Z M-33.125 41.375 C-32.125 44.375 -32.125 44.375 -32.125 44.375 Z M25.875 43.375 C26.875 47.375 26.875 47.375 26.875 47.375 Z M-34.125 45.375 C-33.125 47.375 -33.125 47.375 -33.125 47.375 Z M26.875 48.375 C26.875 57.285 26.875 66.195 26.875 75.375 C27.205 75.375 27.535 75.375 27.875 75.375 C29.058 66.205 29.231 57.531 27.875 48.375 C27.545 48.375 27.215 48.375 26.875 48.375 Z M-34.125 75.375 C-33.125 77.375 -33.125 77.375 -33.125 77.375 Z M25.875 75.375 C26.875 79.375 26.875 79.375 26.875 79.375 Z M-33.125 78.375 C-32.125 81.375 -32.125 81.375 -32.125 81.375 Z M24.875 79.375 C25.875 82.375 25.875 82.375 25.875 82.375 Z M47.875 80.375 C48.875 83.375 48.875 83.375 48.875 83.375 Z M3.875 101.375 C7.875 102.375 7.875 102.375 7.875 102.375 Z M-11.125 102.375 C-11.125 102.705 -11.125 103.035 -11.125 103.375 C-6.175 103.375 -1.225 103.375 3.875 103.375 C3.875 103.045 3.875 102.715 3.875 102.375 C-1.075 102.375 -6.025 102.375 -11.125 102.375 Z M34.875 107.375 C35.875 109.375 35.875 109.375 35.875 109.375 Z M-7.125 122.375 C-7.125 122.705 -7.125 123.035 -7.125 123.375 C-1.515 123.375 4.095 123.375 9.875 123.375 C9.875 123.045 9.875 122.715 9.875 122.375 C4.265 122.375 -1.345 122.375 -7.125 122.375 Z " fill="#FEFEFE" transform="translate(596.125,126.625)"/>
<path d="M0 0 C49.17 0 98.34 0 149 0 C149 0.66 149 1.32 149 2 C99.5 2 50 2 -1 2 C-0.67 1.34 -0.34 0.68 0 0 Z " fill="#FFFFFF" transform="translate(187,34)"/>
<path d="M0 0 C42.24 0 84.48 0 128 0 C128 0.66 128 1.32 128 2 C85.76 2 43.52 2 0 2 C0 1.34 0 0.68 0 0 Z " fill="#FFFFFF" transform="translate(7,34)"/>
<path d="M0 0 C0.33 0 0.66 0 1 0 C1 51.48 1 102.96 1 156 C0.67 156 0.34 156 0 156 C0 104.52 0 53.04 0 0 Z " fill="#FFFFFF" transform="translate(537,130)"/>
<path d="M0 0 C0.33 0 0.66 0 1 0 C1 36.96 1 73.92 1 112 C0.67 112 0.34 112 0 112 C0 75.04 0 38.08 0 0 Z " fill="#FFFFFF" transform="translate(5,37)"/>
<path d="M0 0 C0.33 0 0.66 0 1 0 C1 12.54 1 25.08 1 38 C0.67 38 0.34 38 0 38 C0 25.46 0 12.92 0 0 Z " fill="#FFFFFF" transform="translate(521,41)"/>
<path d="M0 0 C0.33 0 0.66 0 1 0 C1.84 3.654 2.129 7.035 2.133 10.781 C2.134 11.871 2.135 12.96 2.137 14.082 C2.133 15.21 2.129 16.338 2.125 17.5 C2.129 18.628 2.133 19.756 2.137 20.918 C2.135 22.007 2.134 23.096 2.133 24.219 C2.132 25.208 2.131 26.197 2.129 27.217 C2.004 29.912 1.604 32.375 1 35 C0.67 35 0.34 35 0 35 C0 23.45 0 11.9 0 0 Z " fill="#FFFFFF" transform="translate(533,152)"/>
<path d="M0 0 C0.33 0 0.66 0 1 0 C1 12.21 1 24.42 1 37 C0.67 37 0.34 37 0 37 C0 24.79 0 12.58 0 0 Z " fill="#FFFFFF" transform="translate(137,37)"/>
<path d="M0 0 C11.55 0 23.1 0 35 0 C35 0.33 35 0.66 35 1 C23.45 1 11.9 1 0 1 C0 0.67 0 0.34 0 0 Z " fill="#FFFFFF" transform="translate(48,241)"/>
<path d="M0 0 C1.194 -0.014 2.387 -0.028 3.617 -0.043 C7.124 0.187 9.861 0.925 13.125 2.188 C9.74 3.316 8.531 2.921 5.125 2.188 C-0.961 1.882 -6.878 2.121 -12.875 3.188 C-9.207 -0.481 -5.003 0.027 0 0 Z " fill="#FFFFFF" transform="translate(455.875,139.8125)"/>
<path d="M0 0 C0.436 -0.001 0.436 -0.001 2.641 -0.008 C3.543 -0 4.445 0.008 5.375 0.016 C6.277 0.008 7.18 0 8.109 -0.008 C8.981 -0.005 9.852 -0.003 10.75 0 C11.146 0.001 11.146 0.001 13.148 0.007 C15.375 0.266 15.375 0.266 19.375 2.266 C10.135 2.266 0.895 2.266 -8.625 2.266 C-4.955 0.431 -3.828 0.011 0 0 Z " fill="#FFFFFF" transform="translate(591.625,124.734375)"/>
<path d="M0 0 C9.57 0 19.14 0 29 0 C29 0.33 29 0.66 29 1 C19.43 1 9.86 1 0 1 C0 0.67 0 0.34 0 0 Z " fill="#FFFFFF" transform="translate(441,241)"/>
<path d="M0 0 C3.903 1.587 6.335 4.134 9.25 7.125 C10.142 8.035 11.034 8.945 11.953 9.883 C12.629 10.581 13.304 11.28 14 12 C13.67 12.66 13.34 13.32 13 14 C10.83 11.857 8.664 9.711 6.5 7.562 C5.88 6.951 5.26 6.339 4.621 5.709 C4.035 5.126 3.448 4.542 2.844 3.941 C2.571 3.672 2.571 3.672 1.193 2.307 C0 1 0 1 0 0 Z " fill="#FFFFFF" transform="translate(125,114)"/>
<path d="M0 0 C3.911 0.689 7.555 1.783 11.312 3.062 C12.381 3.425 13.45 3.787 14.551 4.16 C14.955 4.299 14.955 4.299 17 5 C12.923 6.685 10.169 5.169 6.25 3.562 C5.08 3.089 3.909 2.616 2.703 2.129 C1.811 1.756 0.919 1.384 0 1 C0 0.67 0 0.34 0 0 Z " fill="#FFFFFF" transform="translate(17,192)"/>
<path d="M0 0 C6.182 0.538 11.327 2.546 17 5 C13.018 6.327 10.552 4.999 6.812 3.562 C6.485 3.441 6.485 3.441 4.83 2.826 C3.217 2.226 1.608 1.614 0 1 C0 0.67 0 0.34 0 0 Z " fill="#FFFFFF" transform="translate(499,74)"/>
<path d="M0 0 C6.6 0 13.2 0 20 0 C20 0.33 20 0.66 20 1 C13.4 1 6.8 1 0 1 C0 0.67 0 0.34 0 0 Z " fill="#FFFFFF" transform="translate(540,127)"/>
<path d="M0 0 C0.66 0.33 1.32 0.66 2 1 C0.35 2.32 -1.3 3.64 -3 5 C-3.66 4.67 -4.32 4.34 -5 4 C-3.35 2.68 -1.7 1.36 0 0 Z " fill="#FFFFFF" transform="translate(627,239)"/>
<path d="M0 0 C4.75 0.75 4.75 0.75 7 3 C2.25 2.25 2.25 2.25 0 0 Z " fill="#FFFFFF" transform="translate(10,189)"/>
<path d="M0 0 C2.64 0 5.28 0 8 0 C8 0.33 8 0.66 8 1 C5.36 1 2.72 1 0 1 C0 0.67 0 0.34 0 0 Z " fill="#FFFFFF" transform="translate(69,99)"/>
<path d="M0 0 C2.31 0 4.62 0 7 0 C7 0.33 7 0.66 7 1 C4.69 1 2.38 1 0 1 C0 0.67 0 0.34 0 0 Z " fill="#FFFFFF" transform="translate(40,240)"/>
<path d="M0 0 C0.66 0.33 1.32 0.66 2 1 C0.35 1.66 -1.3 2.32 -3 3 C-2.01 2.01 -1.02 1.02 0 0 Z " fill="#FFFFFF" transform="translate(84,194)"/>
<path d="M0 0 C0.66 0.33 0.66 0.33 4 2 C3.67 2.66 3.34 3.32 3 4 C2.01 2.68 1.02 1.36 0 0 Z " fill="#FFFFFF" transform="translate(630,139)"/>
<path d="M0 0 C0.66 0.33 1.32 0.66 2 1 C0.35 1.66 -1.3 2.32 -3 3 C-2.01 2.01 -1.02 1.02 0 0 Z " fill="#FFFFFF" transform="translate(445,76)"/>
<path d="M0 0 C0.66 0.33 1.32 0.66 2 1 C0.35 1.66 -1.3 2.32 -3 3 C-2.01 2.01 -1.02 1.02 0 0 Z " fill="#FFFFFF" transform="translate(417,43)"/>
<path d="M0 0 C0.66 0.33 0.66 0.33 4 2 C3.01 2 2.02 2 1 2 C0.67 1.34 0.34 0.68 0 0 Z " fill="#FFFFFF" transform="translate(567,240)"/>
<path d="M0 0 C1.98 0 3.96 0 6 0 C6 0.33 6 0.66 6 1 C4.02 1 2.04 1 0 1 C0 0.67 0 0.34 0 0 Z " fill="#FFFFFF" transform="translate(84,240)"/>
<path d="M0 0 C0.66 0.33 0.66 0.33 4 2 C3.01 2 2.02 2 1 2 C0.67 1.34 0.34 0.68 0 0 Z " fill="#FFFFFF" transform="translate(403,224)"/>
<path d="M0 0 C0.825 0.165 0.825 0.165 5 1 C4.01 1.33 3.02 1.66 2 2 C1.34 1.34 0.68 0.68 0 0 Z " fill="#FFFFFF" transform="translate(611,127)"/>
<path d="M0 0 C0.99 0.33 1.98 0.66 3 1 C1.35 1.33 -0.3 1.66 -2 2 C-1.34 1.34 -0.68 0.68 0 0 Z " fill="#FFFFFF" transform="translate(580,127)"/>
<path d="M0 0 C1.65 0 3.3 0 5 0 C5 0.33 5 0.66 5 1 C3.35 1 1.7 1 0 1 C0 0.67 0 0.34 0 0 Z " fill="#FFFFFF" transform="translate(471,240)"/>
<path d="M0 0 C1.65 0 3.3 0 5 0 C5 0.33 5 0.66 5 1 C3.35 1 1.7 1 0 1 C0 0.67 0 0.34 0 0 Z " fill="#FFFFFF" transform="translate(436,240)"/>
<path d="M0 0 C0.99 0.99 1.98 1.98 3 3 C2.01 2.67 1.02 2.34 0 2 C0 1.34 0 0.68 0 0 Z " fill="#FFFFFF" transform="translate(399,220)"/>
<path d="M0 0 C1.32 0.33 2.64 0.66 4 1 C3.67 1.165 3.67 1.165 2 2 C1.34 1.34 0.68 0.68 0 0 Z " fill="#FFFFFF" transform="translate(4,186)"/>
<path d="M0 0 C1.32 0.33 2.64 0.66 4 1 C3.67 1.165 3.67 1.165 2 2 C1.34 1.34 0.68 0.68 0 0 Z " fill="#FFFFFF" transform="translate(616,129)"/>
<path d="M0 0 C0.99 0.33 1.98 0.66 3 1 C2.01 1 1.02 1 0 1 C0 0.67 0 0.34 0 0 Z " fill="#FFFFFF" transform="translate(571,243)"/>
<path d="M0 0 C0.99 0.33 1.98 0.66 3 1 C2.01 1 1.02 1 0 1 C0 0.67 0 0.34 0 0 Z " fill="#FFFFFF" transform="translate(407,227)"/>
<path d="M0 0 C0.66 0.33 1.32 0.66 2 1 C1.01 1 0.02 1 -1 1 C-0.67 0.67 -0.34 0.34 0 0 Z " fill="#FFFFFF" transform="translate(507,225)"/>
<path d="M0 0 C0.66 0.33 1.32 0.66 2 1 C1.01 1 0.02 1 -1 1 C-0.67 0.67 -0.34 0.34 0 0 Z " fill="#FFFFFF" transform="translate(124,225)"/>
<path d="M0 0 C4 1 4 1 4 1 Z " fill="#FFFFFF" transform="translate(34,198)"/>
<path d="M0 0 C0.99 0.33 1.98 0.66 3 1 C2.01 1 1.02 1 0 1 C0 0.67 0 0.34 0 0 Z " fill="#FFFFFF" transform="translate(606,150)"/>
<path d="M0 0 C0.99 0.33 1.98 0.66 3 1 C2.01 1 1.02 1 0 1 C0 0.67 0 0.34 0 0 Z " fill="#FFFFFF" transform="translate(469,143)"/>
<path d="M0 0 C0.33 0.165 0.33 0.165 2 1 C1.67 1.66 1.34 2.32 1 3 C0.67 2.01 0.34 1.02 0 0 Z " fill="#FFFFFF" transform="translate(140,129)"/>
<path d="M0 0 C0.99 0.33 1.98 0.66 3 1 C2.01 1 1.02 1 0 1 C0 0.67 0 0.34 0 0 Z " fill="#FFFFFF" transform="translate(122,112)"/>
<path d="M0 0 C0.33 0.66 0.66 1.32 1 2 C0.34 1.67 -0.32 1.34 -1 1 C-0.67 0.67 -0.34 0.34 0 0 Z " fill="#FFFFFF" transform="translate(512,221)"/>
<path d="M0 0 C0.66 0.66 1.32 1.32 2 2 C1.34 2 0.68 2 0 2 C0 1.34 0 0.68 0 0 Z " fill="#FFFFFF" transform="translate(611,153)"/>
<path d="M0 0 C0.33 0.165 0.33 0.165 2 1 C1.67 1.165 1.67 1.165 0 2 C0 1.34 0 0.68 0 0 Z " fill="#FFFFFF" transform="translate(565,137)"/>
<path d="" fill="#FFFFFF" transform="translate(0,0)"/>
<path d="" fill="#FFFFFF" transform="translate(0,0)"/>
<path d="M0 0 C2 1 2 1 2 1 Z " fill="#FFFFFF" transform="translate(415,232)"/>
<path d="M0 0 C2 1 2 1 2 1 Z " fill="#FFFFFF" transform="translate(606,225)"/>
<path d="" fill="#FFFFFF" transform="translate(0,0)"/>
<path d="" fill="#FFFFFF" transform="translate(0,0)"/>
<path d="" fill="#FFFFFF" transform="translate(0,0)"/>
<path d="M0 0 C2 1 2 1 2 1 Z " fill="#FFFFFF" transform="translate(8,188)"/>
<path d="M0 0 C2 1 2 1 2 1 Z " fill="#FFFFFF" transform="translate(2,185)"/>
<path d="M0 0 C2 1 2 1 2 1 Z " fill="#FFFFFF" transform="translate(609,152)"/>
<path d="M0 0 C2 1 2 1 2 1 Z " fill="#FFFFFF" transform="translate(82,145)"/>
<path d="M0 0 C2 1 2 1 2 1 Z " fill="#FFFFFF" transform="translate(80,144)"/>
<path d="" fill="#FFFFFF" transform="translate(0,0)"/>
<path d="M0 0 C2 1 2 1 2 1 Z " fill="#FFFFFF" transform="translate(574,130)"/>
<path d="M0 0 C2 1 2 1 2 1 Z " fill="#FFFFFF" transform="translate(576,129)"/>
<path d="" fill="#FFFFFF" transform="translate(0,0)"/>
<path d="M0 0 C2 1 2 1 2 1 Z " fill="#FFFFFF" transform="translate(447,75)"/>
<path d="M0 0 C2 1 2 1 2 1 Z " fill="#FFFFFF" transform="translate(419,42)"/>
<path d="M0 0 C2 1 2 1 2 1 Z " fill="#FFFFFF" transform="translate(421,41)"/>
<path d="" fill="#FFFFFF" transform="translate(0,0)"/>
<path d="" fill="#FFFFFF" transform="translate(0,0)"/>
<path d="" fill="#FFFFFF" transform="translate(0,0)"/>
<path d="" fill="#FFFFFF" transform="translate(0,0)"/>
<path d="" fill="#FFFFFF" transform="translate(0,0)"/>
<path d="" fill="#FFFFFF" transform="translate(0,0)"/>
<path d="" fill="#FFFFFF" transform="translate(0,0)"/>
<path d="" fill="#FFFFFF" transform="translate(0,0)"/>
<path d="" fill="#FFFFFF" transform="translate(0,0)"/>
<path d="" fill="#FFFFFF" transform="translate(0,0)"/>
<path d="" fill="#FFFFFF" transform="translate(0,0)"/>
<path d="" fill="#FFFFFF" transform="translate(0,0)"/>
<path d="" fill="#FFFFFF" transform="translate(0,0)"/>
<path d="" fill="#FFFFFF" transform="translate(0,0)"/>
<path d="" fill="#FFFFFF" transform="translate(0,0)"/>
<path d="" fill="#FFFFFF" transform="translate(0,0)"/>
<path d="" fill="#FFFFFF" transform="translate(0,0)"/>
<path d="" fill="#FFFFFF" transform="translate(0,0)"/>
<path d="" fill="#FFFFFF" transform="translate(0,0)"/>
<path d="" fill="#FFFFFF" transform="translate(0,0)"/>
</svg>
